<svg width="68" height="51" viewBox="0 0 68 51" fill="none" xmlns="http://www.w3.org/2000/svg">
<path d="M58.0046 32.2544H20.8475V30.3966C20.8475 26.2926 17.5201 22.9652 13.4161 22.9652H7.84255C3.73855 22.9652 0.411133 26.2926 0.411133 30.3966V35.9701C0.411133 40.0741 3.73855 43.4016 7.84255 43.4016H59.8625C63.9665 43.4016 67.2939 40.0741 67.2939 35.9701V32.2544H58.0046Z" fill="#99AAB5"/>
<path d="M18.9897 8.10232H13.6874C7.84255 8.10232 5.9847 11.818 5.9847 11.818L0.411133 22.889V32.2544H24.5632V13.6759C24.5632 10.5974 22.0681 8.10232 18.9897 8.10232Z" fill="#FFCC4D"/>
<path d="M17.1319 22.9652H4.12695L7.84266 15.5337C7.84266 15.5337 9.70052 11.818 13.4162 11.818H17.1319V22.9652Z" fill="#55ACEE"/>
<path d="M11.5584 50.833C15.6626 50.833 18.9898 47.5058 18.9898 43.4016C18.9898 39.2973 15.6626 35.9701 11.5584 35.9701C7.45411 35.9701 4.12695 39.2973 4.12695 43.4016C4.12695 47.5058 7.45411 50.833 11.5584 50.833Z" fill="#292F33"/>
<path d="M11.5585 47.1173C13.6106 47.1173 15.2742 45.4537 15.2742 43.4016C15.2742 41.3494 13.6106 39.6859 11.5585 39.6859C9.50635 39.6859 7.84277 41.3494 7.84277 43.4016C7.84277 45.4537 9.50635 47.1173 11.5585 47.1173Z" fill="#CCD6DD"/>
<path d="M56.1468 50.833C60.251 50.833 63.5782 47.5058 63.5782 43.4016C63.5782 39.2973 60.251 35.9701 56.1468 35.9701C52.0425 35.9701 48.7153 39.2973 48.7153 43.4016C48.7153 47.5058 52.0425 50.833 56.1468 50.833Z" fill="#292F33"/>
<path d="M56.1469 47.1173C58.199 47.1173 59.8626 45.4537 59.8626 43.4016C59.8626 41.3494 58.199 39.6859 56.1469 39.6859C54.0947 39.6859 52.4312 41.3494 52.4312 43.4016C52.4312 45.4537 54.0947 47.1173 56.1469 47.1173Z" fill="#CCD6DD"/>
<path d="M37.5681 50.833C41.6724 50.833 44.9996 47.5058 44.9996 43.4016C44.9996 39.2973 41.6724 35.9701 37.5681 35.9701C33.4639 35.9701 30.1367 39.2973 30.1367 43.4016C30.1367 47.5058 33.4639 50.833 37.5681 50.833Z" fill="#292F33"/>
<path d="M37.5682 47.1173C39.6204 47.1173 41.284 45.4537 41.284 43.4016C41.284 41.3494 39.6204 39.6859 37.5682 39.6859C35.5161 39.6859 33.8525 41.3494 33.8525 43.4016C33.8525 45.4537 35.5161 47.1173 37.5682 47.1173Z" fill="#CCD6DD"/>
<path d="M59.8623 0.670898H35.7102C31.6062 0.670898 28.2788 3.99832 28.2788 8.10232V32.2544H67.2938V8.10232C67.2938 3.99832 63.9663 0.670898 59.8623 0.670898Z" fill="#77B255"/>
</svg>
