<svg width="52" height="52" viewBox="0 0 52 52" fill="none" xmlns="http://www.w3.org/2000/svg">
<path d="M51.2643 26.0828C51.2643 40.1173 39.8868 51.4948 25.8524 51.4948C11.8179 51.4948 0.44043 40.1173 0.44043 26.0828C0.44043 12.0484 11.8179 0.670898 25.8524 0.670898C39.8868 0.670898 51.2643 12.0484 51.2643 26.0828Z" fill="#E1E8ED"/>
<path d="M42.7937 26.0829C42.7937 35.4401 35.2097 43.0242 25.8524 43.0242C16.4952 43.0242 8.91113 35.4401 8.91113 26.0829C8.91113 16.7256 16.4952 9.14159 25.8524 9.14159C35.2097 9.14159 42.7937 16.7256 42.7937 26.0829Z" fill="#CCD6DD"/>
<path d="M41.3818 26.0829C41.3818 34.6594 34.4288 41.6124 25.8523 41.6124C17.2743 41.6124 10.3228 34.6594 10.3228 26.0829C10.3228 17.5049 17.2757 10.5534 25.8523 10.5534C34.4288 10.5534 41.3818 17.5049 41.3818 26.0829Z" fill="#E1E8ED"/>
<path d="M1.8522 3.49445C2.63191 3.49445 3.26398 2.86237 3.26398 2.08267C3.26398 1.30297 2.63191 0.670898 1.8522 0.670898C1.0725 0.670898 0.44043 1.30297 0.44043 2.08267C0.44043 2.86237 1.0725 3.49445 1.8522 3.49445Z" fill="#99AAB5"/>
<path d="M0.44043 2.08268H3.26398V11.9651H0.44043V2.08268Z" fill="#99AAB5"/>
<path d="M7.49918 3.49445C8.27888 3.49445 8.91095 2.86237 8.91095 2.08267C8.91095 1.30297 8.27888 0.670898 7.49918 0.670898C6.71948 0.670898 6.0874 1.30297 6.0874 2.08267C6.0874 2.86237 6.71948 3.49445 7.49918 3.49445Z" fill="#99AAB5"/>
<path d="M6.0874 2.08268H8.91095V11.9651H6.0874V2.08268Z" fill="#99AAB5"/>
<path d="M13.1466 3.49445C13.9263 3.49445 14.5584 2.86237 14.5584 2.08267C14.5584 1.30297 13.9263 0.670898 13.1466 0.670898C12.3669 0.670898 11.7349 1.30297 11.7349 2.08267C11.7349 2.86237 12.3669 3.49445 13.1466 3.49445Z" fill="#99AAB5"/>
<path d="M11.7347 2.08268H14.5582V11.9651H11.7347V2.08268ZM4.67578 20.4357H10.3229V48.6712H4.67578V20.4357Z" fill="#99AAB5"/>
<path d="M7.49933 51.4947C9.05873 51.4947 10.3229 50.2306 10.3229 48.6712C10.3229 47.1118 9.05873 45.8476 7.49933 45.8476C5.93993 45.8476 4.67578 47.1118 4.67578 48.6712C4.67578 50.2306 5.93993 51.4947 7.49933 51.4947Z" fill="#99AAB5"/>
<path d="M11.7346 11.9651C11.7346 12.7444 11.1021 13.3769 10.3228 13.3769C9.54355 13.3769 8.91107 12.7444 8.91107 11.9651H6.08753C6.08753 12.7444 5.45505 13.3769 4.67575 13.3769C3.89645 13.3769 3.26398 12.7444 3.26398 11.9651H0.44043C0.44043 17.4231 1.8522 21.8476 7.4993 21.8476C13.1464 21.8476 14.5582 17.4231 14.5582 11.9651H11.7346Z" fill="#99AAB5"/>
<path d="M1.8522 13.3769C2.63191 13.3769 3.26398 12.7448 3.26398 11.9651C3.26398 11.1854 2.63191 10.5534 1.8522 10.5534C1.0725 10.5534 0.44043 11.1854 0.44043 11.9651C0.44043 12.7448 1.0725 13.3769 1.8522 13.3769Z" fill="#99AAB5"/>
<path d="M7.49918 13.3769C8.27888 13.3769 8.91095 12.7448 8.91095 11.9651C8.91095 11.1854 8.27888 10.5534 7.49918 10.5534C6.71948 10.5534 6.0874 11.1854 6.0874 11.9651C6.0874 12.7448 6.71948 13.3769 7.49918 13.3769Z" fill="#99AAB5"/>
<path d="M13.1466 13.3769C13.9263 13.3769 14.5584 12.7448 14.5584 11.9651C14.5584 11.1854 13.9263 10.5534 13.1466 10.5534C12.3669 10.5534 11.7349 11.1854 11.7349 11.9651C11.7349 12.7448 12.3669 13.3769 13.1466 13.3769Z" fill="#99AAB5"/>
<path d="M42.7935 20.4358H48.4406V48.6713H42.7935V20.4358Z" fill="#99AAB5"/>
<path d="M45.617 51.4947C47.1764 51.4947 48.4406 50.2306 48.4406 48.6712C48.4406 47.1118 47.1764 45.8476 45.617 45.8476C44.0576 45.8476 42.7935 47.1118 42.7935 48.6712C42.7935 50.2306 44.0576 51.4947 45.617 51.4947Z" fill="#99AAB5"/>
<path d="M45.617 0.670898C47.0287 0.670898 48.4405 2.08267 48.4405 4.90622V27.4946C48.4405 27.4946 38.5581 30.3182 38.5581 16.2004C38.5581 7.72977 42.7934 0.670898 45.617 0.670898Z" fill="#99AAB5"/>
</svg>
