<svg width="50" height="50" viewBox="0 0 50 50" fill="none" xmlns="http://www.w3.org/2000/svg">
<path d="M24.8527 49.8373C38.4296 49.8373 49.4359 38.831 49.4359 25.2541C49.4359 11.6772 38.4296 0.670898 24.8527 0.670898C11.2758 0.670898 0.269531 11.6772 0.269531 25.2541C0.269531 38.831 11.2758 49.8373 24.8527 49.8373Z" fill="#FFCC4D"/>
<path d="M9.82802 23.8884C9.62316 23.8884 9.4142 23.8419 9.2189 23.745C8.54423 23.4076 8.27109 22.5868 8.60842 21.9121C8.67944 21.7687 10.4085 18.4254 15.2923 18.4254C20.1775 18.4254 21.9052 21.7701 21.9762 21.9121C22.3136 22.5868 22.039 23.4076 21.3657 23.745C20.6952 24.0823 19.8839 23.8119 19.5411 23.1495C19.481 23.0389 18.4062 21.1569 15.2923 21.1569C12.1279 21.1569 11.0599 23.114 11.0504 23.1331C10.8113 23.6125 10.3292 23.8884 9.82802 23.8884ZM39.8755 23.8884C40.0804 23.8884 40.2893 23.8419 40.4846 23.745C41.1593 23.4076 41.4324 22.5868 41.0951 21.9121C41.0241 21.7687 39.2951 18.4254 34.4112 18.4254C29.526 18.4254 27.7983 21.7701 27.7273 21.9121C27.39 22.5868 27.6645 23.4076 28.3378 23.745C29.0084 24.0823 29.8196 23.8119 30.1624 23.1495C30.2225 23.0389 31.2973 21.1569 34.4112 21.1569C37.5756 21.1569 38.6436 23.114 38.6532 23.1331C38.8922 23.6125 39.3743 23.8884 39.8755 23.8884ZM40.5625 32.7929C41.0036 31.77 41.1921 31.0762 41.1989 31.0489C41.3819 30.3196 40.9394 29.5807 40.2088 29.3964C39.4767 29.2106 38.7379 29.6531 38.5494 30.3838C38.4483 30.7867 35.8889 40.2772 24.8525 40.2772C13.816 40.2772 11.2566 30.7867 11.1541 30.3824C10.9657 29.6531 10.2268 29.2106 9.49478 29.395C8.76548 29.5794 8.32298 30.3182 8.50463 31.0475C8.53467 31.1677 11.6472 43.0086 24.8525 43.0086C27.1059 43.0086 29.0453 42.6453 30.7456 42.0731C36.6592 40.0819 39.4508 35.3673 40.5625 32.7929Z" fill="#664500"/>
<path d="M44.5287 37.1101L40.4916 32.9432C40.4916 32.9432 39.5629 32.3451 38.753 33.719C37.6878 35.5245 35.9191 37.7274 33.3802 39.4155C32.3136 40.1243 30.4589 41.0393 29.6969 41.2155C28.693 41.4463 29.167 42.5321 29.167 42.5321C29.9659 42.3586 30.6023 42.121 30.6023 42.121L31.0066 42.5252L34.7296 46.2482C37.0896 48.6082 41.5582 48.9797 44.2897 46.2482C47.0212 43.5168 46.8901 39.4714 44.5287 37.1101Z" fill="#E75B70"/>
<path d="M41.1259 43.1098C41.4168 42.8189 41.4168 42.3477 41.1259 42.0568L36.1696 37.1006L35.0825 38.1221L40.0715 43.1112C40.3624 43.4007 40.835 43.4007 41.1259 43.1098Z" fill="#DE3146"/>
</svg>
