<svg width="92" height="19" viewBox="0 0 92 19" fill="none" xmlns="http://www.w3.org/2000/svg">
<path d="M9.38516 0.877808L11.3208 6.83511H17.5847L12.5171 10.5169L14.4527 16.4742L9.38516 12.7924L4.31758 16.4742L6.25322 10.5169L1.18564 6.83511H7.44952L9.38516 0.877808Z" fill="#FFC300"/>
<path d="M27.6283 0.877808L29.564 6.83511H35.8278L30.7603 10.5169L32.6959 16.4742L27.6283 12.7924L22.5607 16.4742L24.4964 10.5169L19.4288 6.83511H25.6927L27.6283 0.877808Z" fill="#FFC300"/>
<path d="M45.8715 0.877808L47.8071 6.83511H54.071L49.0034 10.5169L50.9391 16.4742L45.8715 12.7924L40.8039 16.4742L42.7395 10.5169L37.672 6.83511H43.9358L45.8715 0.877808Z" fill="#FFC300"/>
<path d="M64.1147 0.877808L66.0503 6.83511H72.3142L67.2466 10.5169L69.1822 16.4742L64.1147 12.7924L59.0471 16.4742L60.9827 10.5169L55.9151 6.83511H62.179L64.1147 0.877808Z" fill="#FFC300"/>
<path d="M82.3578 0.877808L84.2935 6.83511H90.5573L85.4898 10.5169L87.4254 16.4742L82.3578 12.7924L77.2902 16.4742L79.2259 10.5169L74.1583 6.83511H80.4222L82.3578 0.877808Z" stroke="#FFC300" stroke-width="0.3"/>
</svg>
