<svg width="21" height="20" viewBox="0 0 21 20" fill="none" xmlns="http://www.w3.org/2000/svg">
<path d="M14.4199 6.42603C16.0112 6.42603 17.5373 7.05817 18.6626 8.18338C19.7878 9.3086 20.4199 10.8347 20.4199 12.426V19.426H16.4199V12.426C16.4199 11.8956 16.2092 11.3869 15.8341 11.0118C15.4591 10.6367 14.9504 10.426 14.4199 10.426C13.8895 10.426 13.3808 10.6367 13.0057 11.0118C12.6306 11.3869 12.4199 11.8956 12.4199 12.426V19.426H8.41992V12.426C8.41992 10.8347 9.05206 9.3086 10.1773 8.18338C11.3025 7.05817 12.8286 6.42603 14.4199 6.42603Z" fill="#19160C"/>
<path d="M4.41992 7.42603H0.419922V19.426H4.41992V7.42603Z" fill="#19160C"/>
<path d="M2.41992 4.42603C3.52449 4.42603 4.41992 3.53059 4.41992 2.42603C4.41992 1.32146 3.52449 0.426025 2.41992 0.426025C1.31535 0.426025 0.419922 1.32146 0.419922 2.42603C0.419922 3.53059 1.31535 4.42603 2.41992 4.42603Z" fill="#19160C"/>
</svg>
