<svg width="23" height="19" viewBox="0 0 23 19" fill="none" xmlns="http://www.w3.org/2000/svg">
<path d="M22.4199 0.964157C21.4623 1.63963 20.402 2.15627 19.2799 2.49416C18.6777 1.80167 17.8773 1.31085 16.987 1.08808C16.0967 0.865318 15.1594 0.921353 14.302 1.24861C13.4446 1.57587 12.7084 2.15856 12.1929 2.91787C11.6774 3.67719 11.4076 4.57649 11.4199 5.49416V6.49416C9.66256 6.53973 7.9212 6.14997 6.35093 5.3596C4.78067 4.56924 3.43024 3.40279 2.41992 1.96416C2.41992 1.96416 -1.58008 10.9642 7.41992 14.9642C5.36045 16.3621 2.90708 17.0631 0.419922 16.9642C9.41992 21.9642 20.4199 16.9642 20.4199 5.46416C20.419 5.18561 20.3922 4.90775 20.3399 4.63416C21.3605 3.62765 22.0807 2.35687 22.4199 0.964157Z" fill="#19160C"/>
</svg>
