<svg width="66" height="57" viewBox="0 0 66 57" fill="none" xmlns="http://www.w3.org/2000/svg">
<path d="M65.1347 16.0811C65.1347 7.57107 58.2363 0.672721 49.7264 0.672722C41.2163 0.672723 34.318 7.57107 34.318 16.0811C34.318 24.5912 41.2163 31.4894 49.7264 31.4894C51.4753 31.4894 53.1494 31.1845 54.7167 30.6473C51.2492 50.5344 35.741 63.3594 50.117 52.8042C66.0579 41.0996 65.1517 16.552 65.1339 16.1022C65.1339 16.0951 65.1347 16.0889 65.1347 16.0811Z" fill="#F6D876"/>
<path d="M31.2367 16.0819C31.2367 7.5718 24.3383 0.673454 15.8283 0.673454C7.31822 0.673455 0.419864 7.57181 0.419865 16.0819C0.419866 24.5919 7.31835 31.4901 15.8284 31.4901C17.5775 31.4901 19.2515 31.1853 20.8187 30.648C17.3512 50.5352 1.84301 63.3601 16.219 52.8049C32.1599 41.1004 31.2539 16.5528 31.2359 16.1029C31.2359 16.0959 31.2367 16.0896 31.2367 16.0819Z" fill="#F6D876"/>
</svg>
