<svg width="70" height="59" viewBox="0 0 70 59" fill="none" xmlns="http://www.w3.org/2000/svg">
<g opacity="0.5">
<path d="M1.61951 40.863C1.01153 49.3513 7.39942 56.7248 15.8876 57.3328C24.3759 57.9408 31.7495 51.5529 32.3575 43.0646C32.9654 34.5763 26.5775 27.2028 18.0892 26.5949C16.3448 26.4699 14.6531 26.6544 13.0515 27.0784C17.931 7.48973 34.3158 -4.19452 19.2224 5.30665C2.48606 15.8424 1.63612 40.3921 1.62178 40.8421C1.62128 40.849 1.62007 40.8552 1.61951 40.863Z" fill="#F6D876"/>
</g>
<g opacity="0.5">
<path d="M36.3661 40.863C35.7581 49.3513 42.146 56.7248 50.6342 57.3328C59.1225 57.9408 66.4961 51.5529 67.104 43.0646C67.712 34.5763 61.3241 27.2028 52.8358 26.5949C51.0914 26.4699 49.3997 26.6544 47.7981 27.0784C52.6775 7.48973 69.0623 -4.19452 53.969 5.30665C37.2326 15.8424 36.3827 40.3921 36.3684 40.8421C36.3679 40.849 36.3666 40.8552 36.3661 40.863Z" fill="#F6D876"/>
</g>
</svg>
